<svg xmlns="http://www.w3.org/2000/svg" viewBox="0 0 200 200" width="200" height="200" role="img">
  <title>Audio Extractor</title>
  <desc>A dark rounded square badge with a waveform; the central selected region is highlighted white with cut markers on each side.</desc>

  <rect width="200" height="200" rx="28" fill="#111111"/>

  <rect x="68" y="44" width="64" height="112" rx="3" fill="#ffffff" fill-opacity="0.05"/>

  <rect x="68"   y="44"  width="1.5" height="112" fill="#4ade80"/>
  <rect x="66"   y="40"  width="5.5" height="8"   fill="#4ade80"/>
  <rect x="68"   y="152" width="1.5" height="8"   fill="#4ade80"/>

  <rect x="130.5" y="44"  width="1.5" height="112" fill="#f87171"/>
  <rect x="128.5" y="40"  width="5.5" height="8"   fill="#f87171"/>
  <rect x="130.5" y="152" width="1.5" height="8"   fill="#f87171"/>

  <rect x="20"  y="92"  width="5" height="16" rx="2" fill="#2c2c2c"/>
  <rect x="29"  y="84"  width="5" height="32" rx="2" fill="#2c2c2c"/>
  <rect x="38"  y="76"  width="5" height="48" rx="2" fill="#2c2c2c"/>
  <rect x="47"  y="86"  width="5" height="28" rx="2" fill="#2c2c2c"/>
  <rect x="56"  y="70"  width="5" height="60" rx="2" fill="#2c2c2c"/>

  <rect x="74"  y="66"  width="5" height="68" rx="2" fill="#e8e8e8"/>
  <rect x="83"  y="58"  width="5" height="84" rx="2" fill="#e8e8e8"/>
  <rect x="92"  y="52"  width="5" height="96" rx="2" fill="#e8e8e8"/>
  <rect x="101" y="60"  width="5" height="80" rx="2" fill="#e8e8e8"/>
  <rect x="110" y="54"  width="5" height="92" rx="2" fill="#e8e8e8"/>
  <rect x="119" y="62"  width="5" height="76" rx="2" fill="#e8e8e8"/>

  <rect x="135" y="72"  width="5" height="56" rx="2" fill="#2c2c2c"/>
  <rect x="144" y="82"  width="5" height="36" rx="2" fill="#2c2c2c"/>
  <rect x="153" y="78"  width="5" height="44" rx="2" fill="#2c2c2c"/>
  <rect x="162" y="88"  width="5" height="24" rx="2" fill="#2c2c2c"/>
  <rect x="171" y="94"  width="5" height="12" rx="2" fill="#2c2c2c"/>
</svg>
